<?xml version="1.0" encoding="UTF-8"?> <svg xmlns="http://www.w3.org/2000/svg" width="400" height="216" viewBox="0 0 400 216" fill="none"><path d="M278.793 0.816895V6.18659H281.582C289.574 6.18659 294.749 6.88581 297.118 8.28426C299.487 9.68272 301.034 12.2107 301.776 15.8682C302.509 19.5257 302.884 27.6564 302.884 40.2604V111.59C302.884 124.813 302.518 133.239 301.776 136.852C301.034 140.474 299.371 143.136 296.77 144.848C294.168 146.561 289.493 147.412 282.744 147.412H277.854V152.782H311.099V0.816895H278.784H278.793Z" fill="#385675"></path><path d="M325.571 42.0085C325.571 29.5569 325.884 21.4082 326.501 17.5625C327.118 13.7077 328.691 10.8481 331.212 8.98349C333.733 7.11889 338.605 6.18659 345.819 6.18659H351.173V0.816895H315.792V152.782H398.72L399.999 113.338H394.528C393.437 121.971 391.015 129.107 387.252 134.754C383.488 140.393 379.555 143.916 375.443 145.315C371.331 146.713 364.385 147.412 354.615 147.412H325.562V42.0085H325.571Z" fill="#385675"></path><path d="M0.929671 0.816895V6.18659H3.71869C11.7103 6.18659 16.886 6.88581 19.2549 8.28426C21.6238 9.68272 23.1703 12.2107 23.9122 15.8682C24.6452 19.5257 25.0207 27.6564 25.0207 40.2604V111.59C25.0207 124.813 24.6542 133.239 23.9122 136.852C23.1703 140.474 21.5076 143.136 18.9063 144.848C16.305 146.561 11.6298 147.412 4.88077 147.412H0V152.782H33.2447V0.816895H0.929671Z" fill="#385675"></path><path d="M120.866 0.816895H37.9375V152.782H73.3186V147.412H67.9641C60.7502 147.412 55.8784 146.48 53.3575 144.615C50.8367 142.751 49.2634 139.891 48.6466 136.036C48.0209 132.182 47.7169 124.033 47.7169 111.59V75.8492H60.7055C68.4647 75.8492 73.6762 76.5663 76.358 78.0096C79.0308 79.4529 81.051 82.1332 82.4098 86.0597C83.7685 89.9861 84.4479 95.3378 84.4479 102.106H90.2673V46.3293H84.4479C84.4479 56.0557 82.8746 62.528 79.737 65.7552C76.5904 68.9824 70.2525 70.596 60.7144 70.596H47.7259V6.18659H76.7781C86.5575 6.18659 93.4943 6.88581 97.6063 8.28426C101.718 9.68272 105.652 13.2057 109.415 18.8444C113.178 24.483 115.601 31.6187 116.691 40.2604H122.162L120.884 0.816895H120.866Z" fill="#385675"></path><path d="M139.861 0.816895V6.18659H142.65C150.642 6.18659 155.818 6.88581 158.187 8.28426C160.556 9.68272 162.102 12.2107 162.844 15.8682C163.577 19.5257 163.952 27.6564 163.952 40.2604V111.59C163.952 124.813 163.586 133.239 162.844 136.852C162.102 140.474 160.439 143.136 157.838 144.848C155.237 146.561 150.562 147.412 143.813 147.412H138.923V152.782H172.168V0.816895H139.853H139.861Z" fill="#385675"></path><path d="M259.789 0.816895H176.86V152.782H212.241V147.412H206.887C199.673 147.412 194.801 146.48 192.28 144.615C189.76 142.751 188.186 139.891 187.569 136.036C186.944 132.182 186.64 124.033 186.64 111.59V75.8492H199.628C207.388 75.8492 212.599 76.5663 215.281 78.0096C217.954 79.4529 219.974 82.1332 221.333 86.0597C222.691 89.9861 223.371 95.3378 223.371 102.106H229.19V46.3293H223.371C223.371 56.0557 221.797 62.528 218.66 65.7552C215.513 68.9824 209.175 70.596 199.637 70.596H186.649V6.18659H215.701C225.48 6.18659 232.417 6.88581 236.529 8.28426C240.641 9.68272 244.574 13.2057 248.338 18.8444C252.101 24.483 254.524 31.6187 255.614 40.2604H261.085L259.807 0.816895H259.789Z" fill="#385675"></path><path d="M4.80957 178.922H15.6438C18.12 178.922 20.2922 179.379 22.1515 180.294C24.0109 181.208 25.4501 182.508 26.4781 184.184C27.4971 185.861 28.0156 187.824 28.0156 190.056C28.0156 192.288 27.5061 194.26 26.4781 195.955C25.459 197.649 24.0109 198.967 22.1515 199.917C20.2922 200.867 18.12 201.342 15.6438 201.342H9.92276V214.35H4.80957V178.922ZM14.7499 197.102C17.3244 197.102 19.291 196.51 20.6497 195.327C22.0085 194.144 22.6968 192.423 22.6968 190.155C22.6968 187.887 22.0174 186.192 20.6497 184.982C19.2821 183.772 17.3154 183.162 14.7499 183.162H9.91382V197.102H14.7499Z" fill="#676867"></path><path d="M61.9846 178.922H67.7057L81.9279 214.35H76.2605L72.3988 204.184H56.9698L53.1081 214.35H47.7178L61.9846 178.922ZM70.7629 199.899L64.6753 183.727L58.5878 199.899H70.7629Z" fill="#676867"></path><path d="M107.351 178.922H118.042C120.581 178.922 122.789 179.37 124.666 180.276C126.543 181.181 127.991 182.454 129.01 184.095C130.029 185.744 130.548 187.68 130.548 189.922C130.548 192.163 129.967 194.144 128.805 195.793C127.642 197.443 126.132 198.68 124.272 199.523L134.079 214.35H127.946L119.392 200.787C118.989 200.822 118.587 200.831 118.185 200.831H112.464V214.35H107.351V178.922ZM117.014 196.591C122.502 196.591 125.238 194.35 125.238 189.877C125.238 187.672 124.567 186.004 123.218 184.866C121.868 183.727 119.91 183.162 117.336 183.162H112.455V196.591H117.014Z" fill="#676867"></path><path d="M166.197 183.404H154.389V178.931H183.352V183.404H171.543V214.359H166.197V183.404Z" fill="#676867"></path><path d="M209.237 178.922H214.163L234.473 206.515V178.922H239.353V214.35H234.473L214.109 186.703V214.35H209.229V178.922H209.237Z" fill="#676867"></path><path d="M268.271 178.922H290.673V183.306H273.429V194.027H288.769V198.411H273.429V209.975H291.326V214.359H268.271V178.931V178.922Z" fill="#676867"></path><path d="M318.938 178.922H329.63C332.168 178.922 334.376 179.37 336.254 180.276C338.131 181.181 339.579 182.454 340.598 184.095C341.617 185.744 342.136 187.68 342.136 189.921C342.136 192.163 341.555 194.144 340.392 195.793C339.23 197.443 337.72 198.68 335.86 199.522L345.667 214.35H339.534L330.98 200.786C330.577 200.822 330.175 200.831 329.773 200.831H324.052V214.35H318.938V178.922ZM328.611 196.591C334.099 196.591 336.835 194.35 336.835 189.877C336.835 187.671 336.164 186.004 334.814 184.866C333.465 183.727 331.507 183.162 328.932 183.162H324.052V196.591H328.611Z" fill="#676867"></path><path d="M390.453 212.279C388.147 214.161 385.009 215.103 381.04 215.103C379.673 215.103 378.269 214.977 376.812 214.726C375.355 214.475 373.987 214.143 372.718 213.722C371.449 213.301 370.376 212.799 369.509 212.207L370.117 207.546C371.601 208.451 373.326 209.177 375.275 209.733C377.223 210.289 379.074 210.576 380.808 210.576C383.221 210.576 385.134 210.083 386.529 209.088C387.923 208.092 388.621 206.73 388.621 204.982C388.621 203.96 388.388 203.09 387.923 202.391C387.459 201.692 386.663 201.037 385.528 200.437C384.392 199.827 382.81 199.2 380.763 198.545C378.162 197.703 376.079 196.824 374.533 195.892C372.986 194.96 371.869 193.866 371.189 192.602C370.51 191.347 370.17 189.841 370.17 188.102C370.17 186.085 370.671 184.328 371.681 182.831C372.691 181.343 374.095 180.186 375.891 179.379C377.688 178.573 379.798 178.169 382.211 178.169C383.981 178.169 385.769 178.402 387.584 178.868C389.398 179.335 390.999 179.971 392.393 180.778L391.606 185.251C390.274 184.444 388.773 183.817 387.101 183.36C385.429 182.911 383.829 182.687 382.31 182.687C380.137 182.687 378.439 183.135 377.223 184.041C375.999 184.946 375.391 186.201 375.391 187.815C375.391 188.747 375.596 189.545 375.999 190.217C376.401 190.89 377.116 191.499 378.135 192.055C379.154 192.611 380.584 193.203 382.408 193.83C385.224 194.735 387.485 195.686 389.175 196.699C390.864 197.712 392.08 198.841 392.822 200.105C393.564 201.36 393.939 202.866 393.939 204.605C393.939 207.841 392.786 210.396 390.48 212.27L390.453 212.279Z" fill="#676867"></path></svg> 